# xmcd
#
# Track frame offsets:
#	150
#	11591
#	27559
#	37710
#	46649
#	60384
#	73769
#	78381
#	93676
#	107049
#	120620
#	143077
#	155342
#	158128
#	162476
#
# Disc length: 2296 seconds
#
# Revision: 0
# Processed by: cddbd v1.5.2PL0 Copyright (c) Steve Scherf et al.
# Submitted via: EZCDAudioConverter 1.3.4.1
#
DISCID=b908f60f
DTITLE=V/A - Black Girl
DYEAR=1900
DGENRE=
TTITLE0=Black Girl
TTITLE1=B.J.'s Step
TTITLE2=Get Me To The Bridge
TTITLE3=Mother's Day Song 1
TTITLE4=Power
TTITLE5=Mother's Day Song 2
TTITLE6=Black Girl Cue 1
TTITLE7=No World For Dreamers
TTITLE8=I Am Your Mailman
TTITLE9=What It Is
TTITLE10=Earl (Still A Pearl)
TTITLE11=Chock-Lite Puddin'
TTITLE12=Black Girl Cue 2
TTITLE13=Choc-Lite Puddin' Cue
TTITLE14=Sister
EXTD=
EXTT0=
EXTT1=
EXTT2=
EXTT3=
EXTT4=
EXTT5=
EXTT6=
EXTT7=
EXTT8=
EXTT9=
EXTT10=
EXTT11=
EXTT12=
EXTT13=
EXTT14=
PLAYORDER=
